# xmcd
#
# Track frame offsets:
#	150
#	19759
#	33834
#	48964
#	61529
#	78748
#	98656
#	116657
#	136101
#	150257
#	163745
#	184907
#	201495
#	219005
#	231907
#	246764
#	263895
#	283334
#	300789
#	322398
#
# Disc length: 4546 seconds
#
# Revision: 5
# Processed by: cddbd v1.5.2PL0 Copyright (c) Steve Scherf et al.
# Submitted via: audiograbber 1.83.01
#
DISCID=0d11c014
DTITLE=Various Artist - New Country Collection Vol.02 [CD2)
DYEAR=2008
DGENRE=Country
TTITLE0=Alan Jackson - Gone Country
TTITLE1=The Wilkinsons - Occasionally Crazy
TTITLE2=Miranda Lambert - I Can't Be Bothered
TTITLE3=Clint Black - Killin' Time
TTITLE4=Buddy Jewell - Help Pour Out The Rain
TTITLE5=LeAnn Rimes - Nothin' Better To Do
TTITLE6=Keith Anderson - Podunk
TTITLE7=Brooks and Dunn - Hillbilly Deluxe
TTITLE8=Genevieve Spalding - Troublemaker
TTITLE9=Mark Chesnutt - I'm A Saint
TTITLE10=Chely Wright - Bumper Of My SUV
TTITLE11=Roy Rivers - Oh Railroad
TTITLE12=Tommy Roberts Jr. - Live, Laugh, Love
TTITLE13=Ricochet - Blink Of An Eye
TTITLE14=Gretchen Wilson - You Don't Have To Go Home
TTITLE15=Jo Dee Messina - Delicious Surprise
TTITLE16=Jason Michael Carroll - Alyssa Lies
TTITLE17=Lost Trailers - Why Me
TTITLE18=Steve Wariner - Holes In The Floor Of Heaven
TTITLE19=Pat Green - Dixie Lullaby
EXTD=
EXTT0=
EXTT1=
EXTT2=
EXTT3=
EXTT4=
EXTT5=
EXTT6=
EXTT7=
EXTT8=
EXTT9=
EXTT10=
EXTT11=
EXTT12=
EXTT13=
EXTT14=
EXTT15=
EXTT16=
EXTT17=
EXTT18=
EXTT19=
PLAYORDER=
